<svg width="50" height="50" fill="none" xmlns="http://www.w3.org/2000/svg"><path d="M48.644 6.491a.994.994 0 00-.919.27l-5.215 5.244a3.268 3.268 0 01-4.639 0 3.315 3.315 0 010-4.664l5.122-5.15a1.002 1.002 0 00-.39-1.656 10.5 10.5 0 00-4.249-.491 10.787 10.787 0 00-9.469 13.321l-5.52 5.55-7.672-7.713-.086-4.18a1 1 0 00-.449-.815L5.999.164a.99.99 0 00-1.248.129L.29 4.776a1.004 1.004 0 00-.128 1.256l6.01 9.209a.994.994 0 00.81.45l4.154.091 7.673 7.714-5.246 5.274a10.643 10.643 0 00-5.672.15 10.825 10.825 0 00-7.576 9.37 10.66 10.66 0 00.488 4.273.993.993 0 001.647.392l5.122-5.15a3.27 3.27 0 014.638 0 3.315 3.315 0 010 4.664l-5.216 5.244a1.002 1.002 0 00.364 1.647 10.56 10.56 0 003.636.638c.249 0 .499-.008.75-.025a10.79 10.79 0 009.641-13.34l2.097-2.108 1.526 1.534a1.02 1.02 0 001.407 0l.31-.313a.677.677 0 01.955.96l-.31.313a1.004 1.004 0 000 1.415l9.253 9.303a7.695 7.695 0 0010.852-10.912l-9.253-9.303a.99.99 0 00-1.406 0l-.307.309a.689.689 0 01-.955 0 .68.68 0 010-.96l.306-.309a1.004 1.004 0 000-1.414l-1.524-1.533 2.369-2.385c1.899.471 3.891.411 5.758-.175a10.78 10.78 0 006.9-13.929.997.997 0 00-.72-.635zM19.57 35.631a1.005 1.005 0 00-.247 1A8.735 8.735 0 019.63 47.892l3.987-4.01a5.324 5.324 0 000-7.49 5.255 5.255 0 00-7.45 0l-3.845 3.865a8.929 8.929 0 01-.025-1.795 8.814 8.814 0 016.17-7.629 8.697 8.697 0 015.102.011.989.989 0 00.993-.249l5.654-5.685 4.302 4.324-2.445 2.459a1.004 1.004 0 000 1.414c.003.004-2.503 2.523-2.503 2.523zm16.462-5.602a2.636 2.636 0 001.447-.428l8.591 8.639a5.7 5.7 0 11-8.04 8.082l-8.59-8.637a2.672 2.672 0 00-3.687-3.706l-1.57-1.58 2.445-2.458a1.004 1.004 0 000-1.414L12.26 14.084a.991.991 0 00-.681-.293l-4.031-.088-5.28-8.088 3.316-3.332 8.044 5.307.084 4.056c.005.257.11.503.29.686L28.37 26.776a.99.99 0 001.406 0l2.446-2.459 1.571 1.58a2.691 2.691 0 001.218 3.93c.324.134.67.203 1.021.202zm11.957-18.631a8.805 8.805 0 01-6.115 7.747 8.672 8.672 0 01-5.17.01.993.993 0 00-.996.25L32.931 22.2a.992.992 0 00-1.412-.005l-2.446 2.459-4.302-4.325 5.93-5.961a1.003 1.003 0 00.247-1A8.746 8.746 0 0140.31 2.063l-3.844 3.865a5.324 5.324 0 000 7.492 5.249 5.249 0 007.45 0l3.989-4.01c.101.658.13 1.325.085 1.989z" fill="#E37430"/></svg>