<svg width="50" height="50" fill="none" xmlns="http://www.w3.org/2000/svg"><path d="M6.385 42.196c-1.363 0-2.802-.455-3.938-1.363-2.802-2.196-3.256-6.21-1.06-9.011L12.82 17.51c.151-.151.303-.227.53-.303.227 0 .378 0 .53.152l8.784 7.042c.303.227.378.757.151 1.06L11.382 39.848c-1.211 1.515-3.104 2.348-4.997 2.348zm-3.03-2.575c2.12 1.666 5.15 1.363 6.816-.757l10.904-13.706-7.648-6.057L2.598 32.806c-1.665 2.12-1.362 5.15.758 6.815l-.455.606.455-.606z" fill="#E37430"/><path d="M20.772 24.628c-.152 0-.303-.076-.455-.151l-5.982-4.77c-.151-.152-.227-.304-.303-.53 0-.228 0-.38.152-.53l2.953-3.635c.227-.303.757-.38 1.06-.152l5.982 4.77c.152.152.227.303.303.53 0 .228 0 .38-.151.53l-2.954 3.635c-.151.227-.378.303-.605.303zm-4.847-5.603l4.77 3.786 1.97-2.499-4.77-3.786-1.97 2.499z" fill="#E37430"/><path d="M22.134 19.706c-.15 0-.302-.075-.454-.151l-2.877-2.272c-.303-.227-.379-.757-.152-1.06l7.724-9.692.303-1.742c.075-.227.227-.454.454-.53.227-.076.53-.076.757.152l4.317 3.407c.227.152.302.454.302.682 0 .227-.227.454-.454.605l-1.666.758-7.648 9.616c-.151.152-.303.227-.53.303 0-.076-.076-.076-.076-.076zm-1.817-3.104l1.666 1.363 7.345-9.238c.076-.076.152-.152.303-.227l.681-.303-2.347-1.893-.151.681c0 .152-.076.227-.152.303l-7.345 9.314z" fill="#E37430"/><path d="M31.751 9.105c-.151 0-.303-.075-.454-.151L26.98 5.547c-.152-.152-.303-.379-.303-.606a.86.86 0 01.227-.606L31.827.17a.796.796 0 01.984 0l2.423 1.97a.723.723 0 01.227.908l-2.953 5.679a.57.57 0 01-.53.378h-.227zm-3.104-4.164l2.877 2.271 2.272-4.316-1.439-1.135-3.71 3.18zM11.08 39.697c-.152 0-.304-.076-.455-.152L1.84 32.58c-.303-.227-.378-.757-.151-1.06.227-.303.757-.379 1.06-.152l8.784 7.043c.302.227.378.757.151 1.06a.86.86 0 01-.606.227z" fill="#E37430"/><path d="M6.687 36.214c-.151 0-.302-.076-.454-.151-.303-.228-.378-.758-.151-1.06l11.13-13.933c.228-.303.758-.379 1.06-.152.304.227.38.757.152 1.06L7.294 35.911c-.152.227-.38.303-.607.303zm30.289 13.781h-3.029c-.379 0-.681-.303-.757-.682l-.303-2.574c-1.287-.303-2.499-.757-3.559-1.514l-2.044 1.59c-.303.227-.758.227-.985-.076l-2.12-2.12c-.303-.303-.303-.682-.076-.985l1.59-2.044c-.681-1.136-1.211-2.272-1.514-3.559l-2.574-.303c-.38-.076-.682-.379-.682-.757v-3.029c0-.379.303-.681.682-.757l2.574-.303c.303-1.287.757-2.499 1.514-3.559l-1.59-2.044c-.227-.303-.227-.758.076-.985l2.12-2.12c.303-.303.682-.303.985-.076l2.044 1.59c1.136-.681 2.272-1.211 3.559-1.514l.303-2.575c.076-.378.378-.681.757-.681h3.029c.379 0 .681.303.757.681l.303 2.575c1.287.303 2.499.757 3.559 1.514l2.044-1.59c.303-.227.758-.227.985.076l2.12 2.12c.303.303.303.682.076.985l-1.59 2.044c.681 1.136 1.211 2.272 1.514 3.559l2.574.303c.38.075.682.378.682.757v3.029c0 .379-.303.681-.682.757l-2.574.303c-.303 1.287-.757 2.499-1.514 3.559l1.59 2.044c.227.303.227.758-.076.985l-2.045 2.196c-.302.303-.681.303-.984.075l-2.044-1.59c-1.136.682-2.272 1.212-3.56 1.515l-.302 2.574c-.152.303-.454.606-.833.606zm-2.423-1.514h1.666l.303-2.5c.075-.302.302-.605.605-.68 1.439-.228 2.802-.834 4.014-1.667.302-.227.605-.151.908 0l1.969 1.515 1.212-1.212-1.515-1.968c-.227-.228-.227-.606 0-.91.833-1.21 1.363-2.574 1.666-4.012.076-.303.303-.606.681-.606l2.5-.303v-1.666l-2.5-.303c-.302-.075-.605-.303-.681-.606-.227-1.438-.833-2.801-1.666-4.013a.965.965 0 010-.909l1.514-1.968-1.211-1.212-1.969 1.515c-.227.227-.606.227-.908 0-1.212-.833-2.575-1.363-4.014-1.666-.303-.076-.605-.303-.605-.682l-.303-2.498h-1.666l-.303 2.498c-.076.303-.303.606-.606.682-1.439.227-2.801.833-4.013 1.666-.303.227-.606.151-.909 0l-1.969-1.515-1.211 1.212 1.514 1.969c.228.227.228.605 0 .908-.832 1.212-1.363 2.575-1.666 4.013-.075.303-.302.606-.681.606l-2.499.303v1.666l2.499.303c.303.075.606.303.681.606.228 1.438.834 2.801 1.666 4.013a.966.966 0 010 .908l-1.514 1.97 1.211 1.21 1.97-1.514c.226-.227.605-.227.908 0 1.212.833 2.574 1.363 4.013 1.666.303.076.606.303.606.682l.303 2.498z" fill="#E37430"/><path d="M35.462 42.498c-3.938 0-7.043-3.18-7.043-7.117 0-3.938 3.18-7.118 7.043-7.118 3.937 0 7.042 3.18 7.042 7.117 0 3.938-3.18 7.118-7.042 7.118zm0-12.72c-3.105 0-5.528 2.498-5.528 5.602 0 3.105 2.499 5.604 5.527 5.604 3.105 0 5.528-2.499 5.528-5.604 0-3.104-2.499-5.603-5.527-5.603z" fill="#E37430"/></svg>