<svg width="59" height="60" fill="none" xmlns="http://www.w3.org/2000/svg"><path d="M57.74 20.027l-5.773-9.956a2.438 2.438 0 00-2.97-1.094l-6.665 2.693a22.201 22.201 0 00-4.13-2.392L37.188 2.2A2.392 2.392 0 0034.801.129H23.266a2.385 2.385 0 00-2.386 2.058l-1.029 7.091a22.938 22.938 0 00-4.122 2.399l-6.666-2.7a2.399 2.399 0 00-2.976 1.075L.333 20.02a2.418 2.418 0 00.583 3.12l5.65 4.418a19.937 19.937 0 000 4.784L.91 36.76a2.438 2.438 0 00-.59 3.107l5.767 9.962a2.445 2.445 0 002.983 1.094l6.665-2.68a22.179 22.179 0 004.116 2.379l1.016 7.078a2.393 2.393 0 002.386 2.072h11.535a2.385 2.385 0 002.386-2.058l1.029-7.092a22.937 22.937 0 004.122-2.399l6.68 2.7a2.399 2.399 0 002.962-1.075l5.78-10.001a2.431 2.431 0 00-.602-3.094l-5.65-4.417c.192-1.59.192-3.196 0-4.785l5.656-4.417a2.438 2.438 0 00.59-3.107zm-1.802 1.56l-6.082 4.758a.983.983 0 00-.367.898c.122.898.188 1.802.197 2.707a21.89 21.89 0 01-.197 2.707.985.985 0 00.367.898l6.082 4.758a.465.465 0 01.105.584l-5.78 9.988a.42.42 0 01-.531.19l-7.21-2.884a.982.982 0 00-.957.125 21.017 21.017 0 01-4.653 2.7.982.982 0 00-.603.767l-1.069 7.695a.426.426 0 01-.439.347H23.266a.427.427 0 01-.44-.367l-1.094-7.662a.983.983 0 00-.57-.773 20.218 20.218 0 01-4.68-2.688.983.983 0 00-.963-.13l-7.15 2.864a.472.472 0 01-.57-.204L2.036 38.91a.472.472 0 01.118-.603l6.082-4.759a.984.984 0 00.367-.898 21.674 21.674 0 01-.196-2.706c.009-.906.074-1.81.196-2.707a.983.983 0 00-.367-.898l-6.082-4.745a.446.446 0 01-.105-.584l5.78-10.002a.42.42 0 01.532-.19l7.21 2.884a.983.983 0 00.904-.137 20.976 20.976 0 014.686-2.688.983.983 0 00.603-.773l1.062-7.682a.426.426 0 01.439-.347H34.8a.426.426 0 01.44.367l1.094 7.642a.983.983 0 00.603.774 20.2 20.2 0 014.647 2.707.984.984 0 00.963.13l7.151-2.87a.472.472 0 01.57.203l5.761 9.963a.472.472 0 01-.092.602v-.006z" fill="#E37430"/><path d="M29.027 13.899A16.051 16.051 0 1045.085 29.95 16.07 16.07 0 0029.027 13.9zm-2.36 29.92a.99.99 0 000-.217V35.24a.983.983 0 00-.59-.898 7.21 7.21 0 01-.74-12.689l.072 6.181a.983.983 0 00.996.97h5.296a.983.983 0 00.983-.983v-6.023a7.25 7.25 0 013.422 6.108 7.073 7.073 0 01-4.182 6.515.983.983 0 00-.59.898v8.396a.989.989 0 000 .131 13.112 13.112 0 01-4.693 0l.027-.026zm6.646-.459v-7.413a9.058 9.058 0 004.772-8.035 9.24 9.24 0 00-6.03-8.606.985.985 0 00-1.31.924v6.607h-3.343l-.086-6.718a.982.982 0 00-1.31-.924 9.176 9.176 0 00-1.311 16.654v7.511a14.085 14.085 0 118.592 0h.026z" fill="#E37430"/></svg>