<svg width="50" height="50" viewBox="0 0 50 50" fill="none" xmlns="http://www.w3.org/2000/svg">
<path d="M6.38455 42.1955C5.02157 42.1955 3.58286 41.7412 2.44704 40.8326C-0.354644 38.6366 -0.808972 34.6234 1.38695 31.8217L12.8209 17.5104C12.9723 17.359 13.1237 17.2832 13.3509 17.2075C13.5781 17.2075 13.7295 17.2075 13.881 17.359L22.6646 24.401C22.9675 24.6282 23.0432 25.1583 22.8161 25.4611L11.3822 39.8482C10.1706 41.3626 8.27758 42.1955 6.38455 42.1955ZM3.3557 39.621C5.47589 41.2869 8.50474 40.984 10.1706 38.8638L21.0745 25.1583L13.4266 19.1006L2.59849 32.8061C0.932618 34.9263 1.2355 37.9551 3.3557 39.621L2.90137 40.2268L3.3557 39.621Z" fill="#E37430"/>
<path d="M20.7716 24.6282C20.6202 24.6282 20.4687 24.5524 20.3173 24.4767L14.3353 19.7063C14.1839 19.5548 14.1081 19.4034 14.0324 19.1762C14.0324 18.9491 14.0324 18.7976 14.1839 18.6462L17.137 15.0116C17.3641 14.7087 17.8942 14.6329 18.1971 14.8601L24.1791 19.6305C24.3305 19.782 24.4062 19.9334 24.4819 20.1606C24.4819 20.3878 24.4819 20.5392 24.3305 20.6906L21.3774 24.3253C21.2259 24.5524 20.9988 24.6282 20.7716 24.6282ZM15.9254 19.0248L20.6959 22.8108L22.6646 20.312L17.8942 16.526L15.9254 19.0248Z" fill="#E37430"/>
<path d="M22.1345 19.7063C21.9831 19.7063 21.8317 19.6306 21.6802 19.5549L18.8028 17.2832C18.4999 17.056 18.4242 16.526 18.6514 16.2231L26.3749 6.53079L26.6778 4.7892C26.7535 4.56204 26.905 4.33488 27.1322 4.25915C27.3593 4.18343 27.6622 4.18343 27.8894 4.4106L32.2055 7.81805C32.4326 7.9695 32.5084 8.27238 32.5084 8.49955C32.5084 8.72671 32.2812 8.95387 32.054 9.10532L30.3882 9.86253L22.7403 19.4791C22.5889 19.6306 22.4374 19.7063 22.2103 19.782C22.2103 19.7063 22.1345 19.7063 22.1345 19.7063ZM20.3172 16.6017L21.9831 17.9647L29.3281 8.72671C29.4038 8.65099 29.4795 8.57527 29.631 8.49955L30.3124 8.19666L27.9651 6.30363L27.8136 6.98512C27.8136 7.13656 27.7379 7.21228 27.6622 7.28801L20.3172 16.6017Z" fill="#E37430"/>
<path d="M31.7512 9.10548C31.5997 9.10548 31.4483 9.02976 31.2969 8.95404L26.9807 5.54658C26.8293 5.39514 26.6779 5.16798 26.6779 4.94081C26.6779 4.71365 26.7536 4.48649 26.905 4.33504L31.8269 0.170373C32.1298 -0.056791 32.5084 -0.056791 32.8113 0.170373L35.2344 2.13913C35.5372 2.36629 35.613 2.7449 35.4615 3.04778L32.5084 8.72688C32.4327 8.95404 32.2055 9.10548 31.9783 9.10548C31.9026 9.10548 31.8269 9.10548 31.7512 9.10548ZM28.6466 4.94081L31.524 7.21245L33.7957 2.89634L32.357 1.76052L28.6466 4.94081Z" fill="#E37430"/>
<path d="M11.0793 39.6968C10.9278 39.6968 10.7764 39.6211 10.6249 39.5453L1.84127 32.579C1.53838 32.3518 1.46266 31.8218 1.68982 31.5189C1.91699 31.216 2.44704 31.1403 2.74992 31.3674L11.5336 38.4095C11.8365 38.6367 11.9122 39.1667 11.685 39.4696C11.5336 39.6211 11.3064 39.6968 11.0793 39.6968Z" fill="#E37430"/>
<path d="M6.68744 36.2139C6.536 36.2139 6.38455 36.1382 6.23311 36.0625C5.93023 35.8353 5.8545 35.3053 6.08167 35.0024L17.2127 21.0697C17.4399 20.7668 17.9699 20.6911 18.2728 20.9182C18.5757 21.1454 18.6514 21.6754 18.4242 21.9783L7.29321 35.911C7.14177 36.1382 6.9146 36.2139 6.68744 36.2139Z" fill="#E37430"/>
<path d="M36.9759 49.9949H33.947C33.5684 49.9949 33.2655 49.692 33.1898 49.3134L32.8869 46.7389C31.5997 46.436 30.3881 45.9817 29.328 45.2245L27.2836 46.8146C26.9807 47.0418 26.5263 47.0418 26.2992 46.7389L24.179 44.6187C23.8761 44.3158 23.8761 43.9372 24.1033 43.6343L25.6934 41.5899C25.0119 40.4541 24.4819 39.3182 24.179 38.031L21.6045 37.7281C21.2259 37.6524 20.923 37.3495 20.923 36.9709V33.942C20.923 33.5634 21.2259 33.2605 21.6045 33.1848L24.179 32.8819C24.4819 31.5947 24.9362 30.3831 25.6934 29.323L24.1033 27.2786C23.8761 26.9757 23.8761 26.5213 24.179 26.2942L26.2992 24.174C26.6021 23.8711 26.9807 23.8711 27.2836 24.0983L29.328 25.6884C30.4639 25.0069 31.5997 24.4769 32.8869 24.174L33.1898 21.5995C33.2655 21.2209 33.5684 20.918 33.947 20.918H36.9759C37.3545 20.918 37.6574 21.2209 37.7331 21.5995L38.036 24.174C39.3232 24.4769 40.5348 24.9312 41.5949 25.6884L43.6394 24.0983C43.9422 23.8711 44.3966 23.8711 44.6237 24.174L46.7439 26.2942C47.0468 26.5971 47.0468 26.9757 46.8196 27.2786L45.2295 29.323C45.911 30.4588 46.441 31.5947 46.7439 32.8819L49.3184 33.1848C49.6971 33.2605 49.9999 33.5634 49.9999 33.942V36.9709C49.9999 37.3495 49.6971 37.6524 49.3184 37.7281L46.7439 38.031C46.441 39.3182 45.9867 40.5298 45.2295 41.5899L46.8196 43.6343C47.0468 43.9372 47.0468 44.3916 46.7439 44.6187L44.6994 46.8146C44.3966 47.1175 44.018 47.1175 43.7151 46.8904L41.6706 45.3002C40.5348 45.9817 39.399 46.5118 38.1117 46.8146L37.8088 49.3892C37.6574 49.692 37.3545 49.9949 36.9759 49.9949ZM34.5528 48.4805H36.2187L36.5216 45.9817C36.5973 45.6788 36.8244 45.3759 37.1273 45.3002C38.566 45.073 39.929 44.4673 41.1406 43.6343C41.4434 43.4072 41.7463 43.4829 42.0492 43.6343L44.018 45.1488L45.2295 43.9372L43.7151 41.9685C43.4879 41.7413 43.4879 41.3627 43.7151 41.0598C44.548 39.8483 45.0781 38.4853 45.3809 37.0466C45.4567 36.7437 45.6838 36.4408 46.0624 36.4408L48.5612 36.1379V34.4721L46.0624 34.1692C45.7595 34.0935 45.4567 33.8663 45.3809 33.5634C45.1538 32.1247 44.548 30.7617 43.7151 29.5502C43.5636 29.2473 43.5636 28.9444 43.7151 28.6415L45.2295 26.6728L44.018 25.4612L42.0492 26.9757C41.822 27.2028 41.4434 27.2028 41.1406 26.9757C39.929 26.1427 38.566 25.6127 37.1273 25.3098C36.8244 25.2341 36.5216 25.0069 36.5216 24.6283L36.2187 22.1295H34.5528L34.2499 24.6283C34.1742 24.9312 33.947 25.2341 33.6441 25.3098C32.2054 25.537 30.8425 26.1427 29.6309 26.9757C29.328 27.2028 29.0251 27.1271 28.7223 26.9757L26.7535 25.4612L25.542 26.6728L27.0564 28.6415C27.2836 28.8687 27.2836 29.2473 27.0564 29.5502C26.2235 30.7617 25.6934 32.1247 25.3905 33.5634C25.3148 33.8663 25.0876 34.1692 24.709 34.1692L22.2102 34.4721V36.1379L24.709 36.4408C25.0119 36.5165 25.3148 36.7437 25.3905 37.0466C25.6177 38.4853 26.2235 39.8483 27.0564 41.0598C27.2078 41.3627 27.2078 41.6656 27.0564 41.9685L25.542 43.9372L26.7535 45.1488L28.7223 43.6343C28.9494 43.4072 29.328 43.4072 29.6309 43.6343C30.8425 44.4673 32.2054 44.9973 33.6441 45.3002C33.947 45.3759 34.2499 45.6031 34.2499 45.9817L34.5528 48.4805Z" fill="#E37430"/>
<path d="M35.4615 42.4983C31.524 42.4983 28.4194 39.318 28.4194 35.3805C28.4194 31.443 31.5997 28.2627 35.4615 28.2627C39.399 28.2627 42.5036 31.443 42.5036 35.3805C42.5036 39.318 39.3233 42.4983 35.4615 42.4983ZM35.4615 29.7771C32.3569 29.7771 29.9339 32.2759 29.9339 35.3805C29.9339 38.4851 32.4327 40.9839 35.4615 40.9839C38.5661 40.9839 40.9892 38.4851 40.9892 35.3805C40.9892 32.2759 38.4904 29.7771 35.4615 29.7771Z" fill="#E37430"/>
</svg>
