<svg width="59" height="60" viewBox="0 0 59 60" fill="none" xmlns="http://www.w3.org/2000/svg">
<path d="M57.7409 20.027L51.9667 10.0712C51.6829 9.56546 51.228 9.17745 50.6839 8.97685C50.1397 8.77624 49.5419 8.77618 48.9977 8.97667L42.3321 11.6704C41.0457 10.727 39.6613 9.9249 38.2029 9.27816L37.187 2.19965C37.109 1.62346 36.8238 1.09542 36.3847 0.714247C35.9456 0.333072 35.3828 0.124856 34.8013 0.128525H23.266C22.6861 0.123032 22.1241 0.328914 21.6851 0.707678C21.246 1.08644 20.9599 1.61216 20.8803 2.18654L19.8512 9.27816C18.3974 9.93234 17.0158 10.7363 15.7287 11.677L9.06307 8.97667C8.5211 8.76431 7.92041 8.75627 7.37295 8.95403C6.82549 9.15179 6.36862 9.54186 6.08747 10.0515L0.332906 20.0205C0.0376199 20.5234 -0.0659687 21.1161 0.0412227 21.6894C0.148414 22.2627 0.459165 22.778 0.916228 23.1402L6.56593 27.5578C6.37387 29.1468 6.37387 30.7532 6.56593 32.3423L0.909673 36.7598C0.458214 37.1231 0.150895 37.6353 0.0428013 38.2046C-0.0652924 38.7739 0.0329067 39.363 0.319797 39.8665L6.08747 49.8289C6.37271 50.3366 6.82983 50.7258 7.37655 50.9265C7.92326 51.1272 8.52365 51.1261 9.06962 50.9234L15.7352 48.2427C17.018 49.181 18.398 49.9786 19.8512 50.6219L20.8671 57.7004C20.9452 58.2766 21.2304 58.8046 21.6695 59.1858C22.1086 59.567 22.6714 59.7752 23.2529 59.7715H34.7882C35.3681 59.777 35.9301 59.5712 36.3691 59.1924C36.8082 58.8136 37.0943 58.2879 37.1739 57.7135L38.2029 50.6219C39.6568 49.9677 41.0384 49.1638 42.3255 48.2231L49.0042 50.9234C49.5446 51.1321 50.1422 51.1383 50.6867 50.9407C51.2313 50.7431 51.6859 50.3552 51.9667 49.8485L57.7475 39.8468C58.0307 39.3436 58.1256 38.7559 58.0151 38.1891C57.9046 37.6223 57.596 37.1133 57.1445 36.7533L51.4948 32.3358C51.6868 30.7467 51.6868 29.1403 51.4948 27.5512L57.1511 23.1337C57.6025 22.7704 57.9099 22.2582 58.0179 21.6889C58.126 21.1197 58.0278 20.5305 57.7409 20.027ZM55.9385 21.5869L49.8563 26.3452C49.7227 26.4504 49.6186 26.5884 49.5543 26.7458C49.49 26.9032 49.4676 27.0745 49.4892 27.2432C49.6112 28.1405 49.6769 29.0445 49.6859 29.95C49.6769 30.8555 49.6112 31.7596 49.4892 32.6569C49.4676 32.8255 49.49 32.9969 49.5543 33.1543C49.6186 33.3117 49.7227 33.4497 49.8563 33.5548L55.9385 38.3132C56.0211 38.3831 56.0767 38.4795 56.0959 38.586C56.115 38.6924 56.0965 38.8022 56.0434 38.8965L50.2626 48.8851C50.2136 48.977 50.132 49.0475 50.0339 49.0826C49.9357 49.1177 49.828 49.1151 49.7317 49.0751L42.5221 46.1913C42.3654 46.128 42.195 46.1063 42.0274 46.1281C41.8597 46.1499 41.7006 46.2145 41.5652 46.3158C40.1362 47.4115 38.5722 48.3191 36.9118 49.0161C36.7532 49.0804 36.6142 49.185 36.5085 49.3195C36.4027 49.454 36.3339 49.6137 36.3088 49.783L35.2405 57.4776C35.2216 57.5788 35.1667 57.6697 35.086 57.7335C35.0052 57.7974 34.9041 57.8299 34.8013 57.825H23.266C23.1603 57.8292 23.0568 57.794 22.9756 57.7262C22.8944 57.6583 22.8414 57.5627 22.8268 57.4579L21.7323 49.7961C21.7114 49.6292 21.6479 49.4704 21.5481 49.335C21.4483 49.1996 21.3154 49.092 21.1621 49.0227C19.4891 48.3401 17.9152 47.4363 16.4824 46.3355C16.347 46.232 16.1869 46.1655 16.018 46.1425C15.8491 46.1195 15.6771 46.1408 15.5189 46.2044L8.36833 49.0686C8.26454 49.1069 8.15058 49.1076 8.04635 49.0705C7.94212 49.0333 7.85426 48.9607 7.79812 48.8654L2.03699 38.9096C1.98142 38.8116 1.96276 38.6969 1.9844 38.5863C2.00604 38.4757 2.06654 38.3765 2.15497 38.3066L8.23725 33.5483C8.37084 33.4431 8.47489 33.3051 8.53922 33.1477C8.60355 32.9904 8.62596 32.819 8.60428 32.6504C8.48225 31.7531 8.41658 30.849 8.40765 29.9435C8.4166 29.038 8.48227 28.1339 8.60428 27.2366C8.62596 27.068 8.60355 26.8966 8.53922 26.7392C8.47489 26.5818 8.37084 26.4438 8.23725 26.3387L2.15497 21.5935C2.06902 21.526 2.01086 21.4293 1.99152 21.3218C1.97219 21.2142 1.99304 21.1033 2.0501 21.0101L7.83089 11.0085C7.87994 10.9165 7.96148 10.8461 8.05963 10.8109C8.15777 10.7758 8.26549 10.7784 8.36177 10.8184L15.5714 13.7022C15.722 13.7543 15.883 13.769 16.0406 13.745C16.1982 13.7211 16.3475 13.6591 16.4758 13.5646C17.9156 12.4706 19.4907 11.5674 21.1621 10.8774C21.3215 10.8125 21.4611 10.707 21.5669 10.5712C21.6727 10.4355 21.741 10.2744 21.7651 10.104L22.8268 2.42249C22.8457 2.32131 22.9006 2.23039 22.9813 2.16653C23.0621 2.10267 23.1632 2.0702 23.266 2.07512H34.8013C34.907 2.07085 35.0105 2.10607 35.0917 2.17391C35.1729 2.24176 35.2259 2.33737 35.2405 2.44215L36.335 10.0843C36.359 10.2547 36.4274 10.4159 36.5332 10.5516C36.639 10.6873 36.7786 10.7929 36.938 10.8577C38.6007 11.5489 40.1635 12.4592 41.5849 13.5646C41.7204 13.6681 41.8804 13.7346 42.0493 13.7576C42.2182 13.7806 42.3902 13.7592 42.5484 13.6957L49.699 10.8249C49.8028 10.7866 49.9167 10.7859 50.0209 10.8231C50.1252 10.8602 50.213 10.9328 50.2692 11.0281L56.0303 20.9905C56.0888 21.0856 56.1117 21.1984 56.0949 21.3088C56.0781 21.4192 56.0227 21.5201 55.9385 21.5935V21.5869Z" fill="#E37430"/>
<path d="M29.0271 13.8989C25.8527 13.9002 22.75 14.8427 20.1113 16.6072C17.4725 18.3717 15.4162 20.879 14.2024 23.8121C12.9885 26.7452 12.6716 29.9724 13.2916 33.0856C13.9117 36.1987 15.441 39.0582 17.686 41.3023C19.9311 43.5465 22.7911 45.0745 25.9046 45.6933C29.018 46.3122 32.2451 45.9939 35.1776 44.7788C38.1102 43.5638 40.6167 41.5064 42.3801 38.867C44.1436 36.2275 45.0848 33.1245 45.0848 29.9501C45.0796 25.6935 43.3859 21.6129 40.3754 18.6036C37.365 15.5944 33.2836 13.9024 29.0271 13.8989ZM26.6676 43.8187C26.6755 43.7469 26.6755 43.6743 26.6676 43.6025V35.2393C26.6669 35.0486 26.6109 34.8621 26.5061 34.7027C26.4014 34.5432 26.2525 34.4177 26.0777 34.3414C24.8938 33.7935 23.8809 32.9347 23.1466 31.8564C22.4124 30.7782 21.9845 29.521 21.9085 28.2187C21.8325 26.9164 22.1112 25.618 22.715 24.4616C23.3188 23.3053 24.225 22.3344 25.3371 21.6525L25.4092 27.8331C25.4109 27.9622 25.438 28.0897 25.489 28.2084C25.54 28.327 25.6138 28.4344 25.7063 28.5245C25.7989 28.6145 25.9082 28.6855 26.0281 28.7333C26.1481 28.7811 26.2763 28.8049 26.4054 28.8031H31.7012C31.9619 28.8031 32.212 28.6995 32.3963 28.5152C32.5807 28.3308 32.6843 28.0807 32.6843 27.82V21.7967C33.724 22.4431 34.583 23.3424 35.1813 24.4105C35.7796 25.4787 36.0975 26.681 36.1056 27.9052C36.1173 29.2801 35.728 30.6285 34.9854 31.7856C34.2427 32.9427 33.1789 33.8582 31.924 34.4201C31.7492 34.4964 31.6003 34.6219 31.4956 34.7813C31.3908 34.9408 31.3347 35.1272 31.3341 35.318V43.7139C31.3312 43.7575 31.3312 43.8013 31.3341 43.845C29.7826 44.1272 28.1929 44.1272 26.6413 43.845L26.6676 43.8187ZM33.3135 43.36V35.9472C34.7641 35.168 35.9748 34.0081 36.8155 32.5923C37.6562 31.1765 38.0951 29.5583 38.0849 27.9118C38.0728 26.0347 37.4893 24.2058 36.4121 22.6685C35.335 21.1312 33.8152 19.9584 32.0551 19.3061C31.907 19.2538 31.7486 19.2377 31.593 19.2591C31.4374 19.2806 31.2893 19.339 31.1609 19.4295C31.0325 19.52 30.9277 19.6399 30.8552 19.7792C30.7827 19.9186 30.7447 20.0732 30.7443 20.2303V26.8369H27.4016L27.3164 20.1188C27.316 19.9618 27.2779 19.8071 27.2054 19.6678C27.1329 19.5285 27.0281 19.4086 26.8998 19.3181C26.7714 19.2276 26.6232 19.1692 26.4677 19.1477C26.3121 19.1262 26.1536 19.1424 26.0056 19.1947C24.3497 19.7958 22.9019 20.8609 21.835 22.2626C20.7681 23.6644 20.1273 25.3437 19.9891 27.0998C19.8509 28.856 20.2211 30.6148 21.0555 32.1662C21.8899 33.7177 23.1533 34.9961 24.6947 35.8489V43.36C21.4961 42.3355 18.7688 40.2016 17.0048 37.3433C15.2409 34.4851 14.5564 31.0906 15.0749 27.7721C15.5934 24.4536 17.2806 21.4296 19.8324 19.2456C22.3841 17.0616 25.6323 15.8613 28.991 15.8613C32.3498 15.8613 35.5979 17.0616 38.1497 19.2456C40.7014 21.4296 42.3887 24.4536 42.9071 27.7721C43.4256 31.0906 42.7411 34.4851 40.9772 37.3433C39.2132 40.2016 36.486 42.3355 33.2873 43.36H33.3135Z" fill="#E37430"/>
</svg>
