<svg width="50" height="50" viewBox="0 0 50 50" fill="none" xmlns="http://www.w3.org/2000/svg">
<path d="M48.6444 6.49119C48.4809 6.45507 48.311 6.46079 48.1504 6.50783C47.9898 6.55487 47.8436 6.6417 47.7255 6.76027L42.5097 12.0045C42.2059 12.3104 41.8445 12.5531 41.4465 12.7187C41.0485 12.8844 40.6216 12.9696 40.1905 12.9696C39.7594 12.9696 39.3325 12.8844 38.9345 12.7187C38.5364 12.5531 38.1751 12.3104 37.8713 12.0045C37.2571 11.3839 36.9126 10.546 36.9126 9.67291C36.9126 8.79978 37.2571 7.9619 37.8713 7.34127L42.9932 2.19165C43.1133 2.07096 43.2006 1.92167 43.247 1.75785C43.2934 1.59403 43.2973 1.42109 43.2583 1.25535C43.2194 1.0896 43.1388 0.93653 43.0242 0.810567C42.9097 0.684604 42.7649 0.589908 42.6036 0.535414C41.2358 0.0817259 39.7894 -0.0855792 38.3541 0.0439122C36.8096 0.188416 35.3143 0.664378 33.9704 1.43933C32.6265 2.21428 31.4655 3.26999 30.5667 4.53444C29.6679 5.79888 29.0524 7.24232 28.7622 8.76627C28.472 10.2902 28.514 11.8588 28.8851 13.3651L23.365 18.9157L15.6927 11.2022L15.6069 7.02202C15.6037 6.85993 15.5611 6.70105 15.4829 6.55903C15.4047 6.41701 15.2932 6.29609 15.158 6.20665L5.99927 0.164081C5.80836 0.0378739 5.57962 -0.0182628 5.35197 0.00522891C5.12433 0.0287206 4.91187 0.130388 4.75076 0.292921L0.291392 4.77637C0.129587 4.93945 0.0285791 5.15307 0.00521107 5.38161C-0.018157 5.61014 0.0375279 5.83979 0.16298 6.03224L6.17297 15.2405C6.26115 15.3759 6.38098 15.4877 6.5221 15.5663C6.66321 15.6449 6.82135 15.6879 6.98283 15.6916L11.1373 15.782L18.81 23.4956L13.5642 28.7698C11.6947 28.3055 9.73432 28.3572 7.89196 28.9195C5.84249 29.5548 4.02805 30.7848 2.67908 32.4533C1.33011 34.1219 0.507479 36.1538 0.315669 38.2908C0.186698 39.7333 0.353025 41.1869 0.804499 42.563C0.857114 42.7245 0.950348 42.8699 1.07526 42.9851C1.20018 43.1003 1.35259 43.1814 1.51788 43.2208C1.68317 43.2602 1.8558 43.2564 2.01923 43.2099C2.18265 43.1634 2.3314 43.0757 2.45119 42.9552L7.57255 37.8056C7.87652 37.4999 8.23789 37.2574 8.63589 37.0919C9.03389 36.9264 9.46068 36.8412 9.89173 36.8412C10.3228 36.8411 10.7496 36.9263 11.1476 37.0918C11.5456 37.2572 11.907 37.4997 12.211 37.8053C12.8252 38.4259 13.1696 39.2638 13.1696 40.1369C13.1696 41.0101 12.8252 41.8479 12.211 42.4686L6.99524 47.7129C6.87689 47.8319 6.79034 47.9788 6.74354 48.1401C6.69674 48.3013 6.69118 48.4717 6.72738 48.6357C6.76358 48.7996 6.84037 48.9518 6.95071 49.0784C7.06105 49.2049 7.20141 49.3017 7.35889 49.3599C8.52397 49.7847 9.75479 50.0008 10.9949 49.9984C11.2436 49.9984 11.4938 49.9899 11.7454 49.9729C13.3068 49.8515 14.8231 49.3917 16.1889 48.6254C17.5547 47.8591 18.7374 46.8047 19.6547 45.5353C20.5721 44.266 21.2021 42.8122 21.5011 41.2749C21.8 39.7376 21.7608 38.1536 21.386 36.633L23.4827 34.5246L25.0091 36.0593C25.1988 36.2397 25.4506 36.3404 25.7124 36.3403C25.9742 36.3403 26.226 36.2395 26.4157 36.059L26.7259 35.7465C26.8535 35.6212 27.0255 35.5515 27.2043 35.5526C27.3832 35.5536 27.5543 35.6254 27.6804 35.7522C27.8065 35.879 27.8774 36.0505 27.8774 36.2294C27.8775 36.4082 27.8069 36.5798 27.6809 36.7067L27.3701 37.0195C27.1837 37.2076 27.0791 37.4618 27.0792 37.7266C27.0793 37.9915 27.1841 38.2456 27.3706 38.4335L36.6238 47.7367C38.0725 49.1677 40.0292 49.9661 42.0654 49.9571C44.1016 49.9481 46.0512 49.1324 47.4871 47.6887C48.923 46.2449 49.7281 44.2909 49.7261 42.2547C49.7241 40.2185 48.915 38.2661 47.4762 36.8253L38.223 27.5221C38.131 27.4293 38.0215 27.3557 37.9008 27.3054C37.7801 27.2552 37.6507 27.2293 37.52 27.2293C37.3893 27.2293 37.2599 27.2552 37.1392 27.3054C37.0186 27.3557 36.9091 27.4293 36.817 27.5221L36.51 27.8307C36.3817 27.9541 36.2106 28.0231 36.0325 28.0231C35.8545 28.0232 35.6834 27.9543 35.555 27.831C35.428 27.7036 35.3566 27.531 35.3565 27.351C35.3564 27.1711 35.4276 26.9984 35.5545 26.8708L35.8615 26.5621C36.0481 26.3741 36.1528 26.1199 36.1528 25.855C36.1528 25.5901 36.0481 25.3359 35.8615 25.1478L34.337 23.6151L36.7059 21.2299C38.6049 21.7015 40.597 21.641 42.4639 21.055C43.8482 20.6182 45.1301 19.9064 46.2326 18.9621C47.3351 18.0179 48.2356 16.8606 48.8799 15.5599C49.5242 14.2591 49.8992 12.8416 49.9823 11.3924C50.0654 9.94316 49.855 8.49208 49.3636 7.12618C49.3068 6.96838 49.2111 6.82745 49.0854 6.71646C48.9597 6.60546 48.808 6.52798 48.6444 6.49119ZM19.5704 35.6304C19.4425 35.7593 19.352 35.9203 19.3083 36.0965C19.2647 36.2727 19.2697 36.4575 19.3228 36.6311C19.7717 38.0503 19.8505 39.5608 19.5516 41.0191C19.2527 42.4773 18.586 43.835 17.615 44.9632C16.6439 46.0914 15.4005 46.9527 14.003 47.4653C12.6055 47.9779 11.1001 48.1249 9.62984 47.8922L13.6171 43.8826C14.604 42.8858 15.1576 41.5397 15.1576 40.1369C15.1576 38.7342 14.604 37.3881 13.6171 36.3913C13.1288 35.9005 12.5483 35.5111 11.909 35.2453C11.2696 34.9795 10.5841 34.8427 9.89179 34.8427C9.19945 34.8427 8.51393 34.9795 7.87463 35.2453C7.23532 35.5111 6.65483 35.9005 6.1665 36.3913L2.32224 40.2566C2.25351 39.6607 2.24502 39.0593 2.29688 38.4617C2.45367 36.7218 3.12396 35.0677 4.22266 33.7095C5.32137 32.3513 6.7989 31.3503 8.46766 30.8335C10.131 30.3271 11.9079 30.3308 13.5691 30.8443C13.7415 30.8973 13.9252 30.902 14.1002 30.8581C14.2752 30.8142 14.4348 30.7232 14.5618 30.595L20.2164 24.9095L24.5181 29.2342L22.0728 31.6927C21.8862 31.8808 21.7815 32.135 21.7815 32.3999C21.7815 32.6648 21.8862 32.919 22.0728 33.107C22.0764 33.1106 19.5704 35.6304 19.5704 35.6304ZM36.032 30.0295C36.5455 30.0308 37.0483 29.882 37.4785 29.6014L46.0702 38.2396C47.1421 39.3058 47.7465 40.7541 47.7505 42.266C47.7544 43.7778 47.1577 45.2293 46.0915 46.3012C45.0253 47.373 43.5769 47.9774 42.0651 47.9814C40.5533 47.9854 39.1017 47.3887 38.0299 46.3225L29.4392 37.6854C29.7737 37.1729 29.922 36.5611 29.8595 35.9523C29.797 35.3435 29.5275 34.7746 29.0959 34.3407C28.6643 33.9068 28.0969 33.6342 27.4884 33.5684C26.88 33.5026 26.2674 33.6477 25.7531 33.9794L24.1825 32.3999L26.6277 29.9413C26.8143 29.7533 26.919 29.4991 26.919 29.2342C26.919 28.9692 26.8143 28.7151 26.6277 28.527L12.2612 14.0837C12.0805 13.9016 11.8362 13.7967 11.5798 13.791L7.54881 13.7034L2.2699 5.61534L5.58487 2.28253L13.6289 7.58973L13.7126 11.6457C13.7178 11.9035 13.8221 12.1494 14.0039 12.3322L28.3704 26.7759C28.4625 26.8687 28.572 26.9424 28.6926 26.9926C28.8133 27.0429 28.9427 27.0688 29.0734 27.0688C29.2042 27.0688 29.3336 27.0429 29.4543 26.9926C29.5749 26.9424 29.6844 26.8687 29.7765 26.7759L32.2222 24.317L33.7934 25.8967C33.463 26.412 33.3181 27.0246 33.3827 27.6333C33.4472 28.2419 33.7173 28.8105 34.1484 29.245C34.3946 29.4943 34.6879 29.692 35.0113 29.8267C35.3347 29.9614 35.6816 30.0303 36.032 30.0295ZM47.9888 11.3978C47.86 13.1521 47.2087 14.8277 46.1188 16.2085C45.029 17.5893 43.5506 18.612 41.8741 19.1449C40.192 19.6738 38.3885 19.6773 36.7042 19.1549C36.5313 19.1017 36.347 19.0968 36.1715 19.1407C35.9959 19.1847 35.8357 19.2758 35.7082 19.4042L32.9305 22.2012C32.8386 22.1074 32.729 22.0328 32.6081 21.9817C32.4872 21.9306 32.3573 21.9041 32.226 21.9036C32.0947 21.9031 31.9646 21.9287 31.8433 21.9788C31.7219 22.029 31.6118 22.1028 31.5192 22.1959L29.0734 24.6547L24.7715 20.3296L30.7002 14.3685C30.8279 14.24 30.9184 14.0792 30.9621 13.9034C31.0058 13.7275 31.0011 13.5431 30.9484 13.3697C30.5113 11.9776 30.4294 10.4983 30.7102 9.06647C30.991 7.63463 31.6255 6.29578 32.5559 5.17183C33.4864 4.04788 34.6832 3.17454 36.0374 2.63133C37.3916 2.08813 38.8602 1.89231 40.3095 2.06173L36.4652 5.92727C35.4783 6.92411 34.9247 8.27017 34.9247 9.67292C34.9247 11.0757 35.4783 12.4217 36.4652 13.4186C36.9531 13.9101 37.5335 14.3001 38.1729 14.5663C38.8122 14.8325 39.4979 14.9696 40.1905 14.9696C40.8831 14.9696 41.5688 14.8325 42.2081 14.5663C42.8475 14.3001 43.4279 13.9101 43.9158 13.4186L47.9036 9.40925C48.0054 10.0669 48.034 10.7338 47.9888 11.3978Z" fill="#E37430"/>
</svg>
